<svg height="512pt" viewBox="0 -61 512 512" width="512pt" xmlns="http://www.w3.org/2000/svg"><path d="m466 0h-420c-24.902344 0-46 20.097656-46 45v300c0 24.898438 21.097656 45 46 45h420c24.902344 0 46-20.101562 46-45v-300c0-24.902344-21.097656-45-46-45zm0 0" fill="#3aaaff"/><path d="m512 45v300c0 24.898438-21.097656 45-46 45h-210v-390h210c24.902344 0 46 20.097656 46 45zm0 0" fill="#0095ff"/><path d="m356.5 295.5-30 30c-5.699219 6-15.300781 6-21 0-6-5.699219-6-15.300781 0-21l4.199219-4.5h-173.699219c-8.402344 0-15-6.601562-15-15 0-8.402344 6.597656-15 15-15h173.699219c-7.796875-7.800781-13.5-16.5-4.199219-25.5 5.699219-6 15.296875-6 21 0l30 30c6 5.699219 6 15.300781 0 21zm0 0" fill="#e2e2e7"/><path d="m151 195c0-8.289062-6.710938-15-15-15h-45v-30h45c8.289062 0 15-6.710938 15-15s-6.710938-15-15-15h-45v-30h45c8.289062 0 15-6.710938 15-15s-6.710938-15-15-15h-60c-8.289062 0-15 6.710938-15 15v120c0 8.289062 6.710938 15 15 15h60c8.289062 0 15-6.710938 15-15zm0 0" fill="#e2e2e7"/><path d="m269.5 188.398438c3.601562 7.199218.597656 16.203124-6.902344 20.101562-2.097656.898438-4.199218 1.5-6.597656 1.5-5.398438 0-10.800781-3-13.5-8.402344l-16.5-32.996094-16.5 32.996094c-3.898438 7.5-12.597656 10.503906-20.097656 6.902344-7.5-3.898438-10.503906-12.902344-6.902344-20.101562l26.699219-53.398438-26.699219-53.402344c-3.601562-7.199218-.597656-16.199218 6.902344-20.097656 7.199218-3.601562 16.199218-.601562 20.097656 6.898438l16.5 33 16.5-33c2.699219-5.398438 8.101562-8.398438 13.5-8.398438 2.402344 0 4.5.597656 6.597656 1.5 7.5 3.898438 10.503906 12.898438 6.902344 20.097656l-26.699219 53.402344zm0 0" fill="#e2e2e7"/><g fill="#d3d3d8"><path d="m316 210c8.289062 0 15-6.710938 15-15v-120c0-8.289062-6.710938-15-15-15s-15 6.710938-15 15v120c0 8.289062 6.710938 15 15 15zm0 0"/><path d="m436 60h-60c-8.289062 0-15 6.710938-15 15s6.710938 15 15 15h15v105c0 8.289062 6.710938 15 15 15s15-6.710938 15-15v-105h15c8.289062 0 15-6.710938 15-15s-6.710938-15-15-15zm0 0"/><path d="m262.597656 208.5c-2.097656.898438-4.199218 1.5-6.597656 1.5v-48.601562l13.5 27c3.601562 7.199218.597656 16.203124-6.902344 20.101562zm0 0"/><path d="m269.5 81.597656-13.5 27.003906v-48.601562c2.402344 0 4.5.597656 6.597656 1.5 7.5 3.898438 10.503906 12.898438 6.902344 20.097656zm0 0"/><path d="m356.5 295.5-30 30c-5.699219 6-15.300781 6-21 0-6-5.699219-6-15.300781 0-21l4.199219-4.5h-53.699219v-30h53.699219c-7.796875-7.800781-13.5-16.5-4.199219-25.5 5.699219-6 15.296875-6 21 0l30 30c6 5.699219 6 15.300781 0 21zm0 0"/></g></svg>